<svg width="22" height="21" viewBox="0 0 22 21" fill="none" xmlns="http://www.w3.org/2000/svg">
<g clip-path="url(#clip0_87_68)">
<path d="M15.2188 10.5C15.2188 11.4105 15.1684 12.2883 15.0803 13.125H7.29831C7.21017 12.2883 7.12202 11.4105 7.12202 10.5C7.12202 9.58945 7.21017 8.71172 7.29831 7.875H15.0803C15.1684 8.71172 15.2188 9.58945 15.2188 10.5ZM21.5946 7.875C21.8171 8.71582 21.9346 9.59355 21.9346 10.5C21.9346 11.4064 21.8171 12.2842 21.5946 13.125H16.4276C16.5158 12.2801 16.562 11.3654 16.562 10.5C16.562 9.59766 16.5158 8.71992 16.4276 7.875H21.5946ZM21.1539 6.5625H16.2556C15.8358 3.94324 15.0047 1.74809 13.9344 0.346254C17.2251 1.19314 19.8947 3.52488 21.1539 6.5625ZM14.8956 6.5625H7.483C7.73904 5.06953 8.13359 3.74801 8.61629 2.68037C9.05702 1.71199 9.54812 1.00939 10.0224 0.566426C10.4925 0.130348 10.8829 0 11.1893 0C11.4957 0 11.8861 0.130348 12.3562 0.566426C12.8305 1.00939 13.3216 1.71199 13.7623 2.68037C14.245 3.74801 14.6396 5.06953 14.8956 6.5625ZM1.2251 6.5625C2.48348 3.52488 5.15345 1.19314 8.4442 0.346254C7.37387 1.74809 6.54278 3.94324 6.12304 6.5625H1.2251ZM5.95095 7.875C5.8628 8.71992 5.77886 9.59766 5.77886 10.5C5.77886 11.3654 5.8628 12.2801 5.95095 13.125H0.782489C0.561497 12.2842 0.44397 11.4064 0.44397 10.5C0.44397 9.59355 0.561497 8.71582 0.782489 7.875H5.95095ZM8.61629 18.3176C8.13359 17.2512 7.73904 15.9305 7.483 14.4375H14.8956C14.6396 15.9305 14.245 17.2512 13.7623 18.3176C13.3216 19.2896 12.8305 19.991 12.3562 20.434C11.8861 20.8687 11.4957 21 11.1515 21C10.8829 21 10.4925 20.8687 10.0224 20.434C9.54812 19.991 9.05702 19.2896 8.61629 18.3176ZM8.4442 20.6555C5.15345 19.8064 2.48348 17.4768 1.2251 14.4375H6.12304C6.54278 17.0584 7.37387 19.2527 8.4442 20.6555ZM13.9344 20.6555C15.0047 19.2527 15.8358 17.0584 16.2556 14.4375H21.1539C19.8947 17.4768 17.2251 19.8064 13.9344 20.6555Z" fill="black"/>
</g>
<defs>
<clipPath id="clip0_87_68">
<rect width="21.4907" height="21" fill="white" transform="translate(0.44397)"/>
</clipPath>
</defs>
</svg>
