<svg width="21" height="16" viewBox="0 0 21 16" fill="none" xmlns="http://www.w3.org/2000/svg">
<path d="M0 2.66667C0 1.19375 1.1751 0 2.625 0H18.375C19.8229 0 21 1.19375 21 2.66667V13.3333C21 14.8042 19.8229 16 18.375 16H2.625C1.1751 16 0 14.8042 0 13.3333V2.66667ZM1.96875 2.66667V3.5875L9.04395 9.4875C9.88887 10.1958 11.1111 10.1958 11.9561 9.4875L19.0312 3.5875V2.62917C19.0312 2.3 18.7359 1.9625 18.375 1.9625H2.625C2.26242 1.9625 1.96875 2.3 1.96875 2.62917V2.66667ZM1.96875 6.175V13.3333C1.96875 13.7 2.26242 14 2.625 14H18.375C18.7359 14 19.0312 13.7 19.0312 13.3333V6.175L13.207 11.0333C11.632 12.3458 9.36797 12.3458 7.75605 11.0333L1.96875 6.175Z" fill="black"/>
</svg>
