<svg width="19" height="20" viewBox="0 0 19 20" fill="none" xmlns="http://www.w3.org/2000/svg">
<path d="M11.3258 0.103228C10.0186 0.34824 9.01078 0.919933 7.9231 2.0327C7.26451 2.70648 6.92523 3.14546 6.7057 3.62527C6.2367 4.61553 5.98723 5.7385 5.98723 6.88189V7.86194L2.99362 10.9246L0 13.9974V16.4578C0 18.9181 0 18.9283 0.239489 19.2142L0.478978 19.5H2.94372H5.40847L5.64795 19.2142C5.85751 18.9589 5.88744 18.8364 5.88744 18.0197V17.1213L6.83542 17.0805C8.1127 17.0397 8.21249 16.9376 8.28234 15.6411L8.33223 14.7019L9.25027 14.6508L10.1783 14.5998L10.777 13.9872L11.3857 13.3747L12.4035 13.3645C14.3494 13.3441 15.8562 12.7213 17.1035 11.435C17.9218 10.5979 18.3608 9.87308 18.74 8.81136C18.9695 8.15799 18.9995 7.90277 18.9995 6.73897C19.0095 5.23827 18.8797 4.64616 18.291 3.49256C17.8819 2.70648 16.874 1.60393 16.0657 1.06286C14.6887 0.154272 12.9624 -0.192827 11.3258 0.103228ZM13.8105 1.95103C15.1377 2.29813 16.2454 3.23734 16.8341 4.51344C17.5126 5.95289 17.5126 7.42296 16.8341 8.87261C15.8861 10.9144 13.8105 11.9148 11.3558 11.4963L10.8868 11.4146L10.2182 12.1088L9.53965 12.8132L8.04285 12.8336L6.53606 12.8643L6.50612 14.0689L6.47619 15.2633H5.28872H4.09127V16.4884V17.7135H2.89383H1.69638V16.2025V14.6916L4.79976 11.5371L7.90314 8.38259L7.79338 7.49442C7.39423 4.33989 9.44985 1.83873 12.4634 1.79789C12.8626 1.78768 13.4713 1.85915 13.8105 1.95103Z" fill="black"/>
<path d="M13.1719 4.40108C12.2938 4.77881 12.4235 6.31013 13.3515 6.59598C14.1897 6.8512 14.8683 6.33055 14.8683 5.44238C14.8683 5.02382 14.8184 4.8911 14.5789 4.63588C14.4193 4.47254 14.2297 4.32962 14.1498 4.32962C13.6509 4.27857 13.4314 4.29899 13.1719 4.40108Z" fill="black"/>
</svg>
