<svg width="18" height="19" viewBox="0 0 18 19" fill="none" xmlns="http://www.w3.org/2000/svg">
<path d="M11.0299 11.2812H7.3019C3.52733 11.2812 0.467285 14.2055 0.467285 17.8125C0.467285 18.4682 1.02376 19 1.70994 19H16.6218C17.308 19 17.8645 18.4682 17.8645 17.8125C17.8645 14.2055 14.8044 11.2812 11.0299 11.2812ZM2.36972 17.2188C2.6765 14.8771 4.76998 13.0625 7.3019 13.0625H11.0299C13.5602 13.0625 15.6549 14.879 15.9617 17.2188H2.36972ZM9.16588 9.5C11.911 9.5 14.1365 7.37326 14.1365 4.75C14.1365 2.12674 11.911 0 9.16588 0C6.42078 0 4.19526 2.12674 4.19526 4.75C4.19526 7.37363 6.42039 9.5 9.16588 9.5ZM9.16588 1.78125C10.8788 1.78125 12.2725 3.11311 12.2725 4.75C12.2725 6.38689 10.8788 7.71875 9.16588 7.71875C7.45296 7.71875 6.05924 6.38652 6.05924 4.75C6.05924 3.11311 7.45335 1.78125 9.16588 1.78125Z" fill="black"/>
</svg>
