<svg width="468" height="484" viewBox="0 0 468 484" fill="none" xmlns="http://www.w3.org/2000/svg">
<path fill-rule="evenodd" clip-rule="evenodd" d="M242.637 0.0168098C302.401 0.922486 352.713 39.3321 394.171 82.3593C434.672 124.394 465.896 175.472 467.882 233.791C469.933 294.02 445.181 351.092 404.848 395.893C362.061 443.422 306.608 484.653 242.637 483.992C179.107 483.336 127.958 438.169 83.7447 392.576C40.4319 347.912 -0.526419 295.985 0.00511757 233.791C0.533431 171.974 41.9026 120.603 86.4358 77.6958C129.96 35.7607 182.185 -0.899291 242.637 0.0168098Z" fill="#FBDFB7"/>
<path d="M169.934 152.002C169.934 152.002 200.784 100.636 262.452 120.738C324.021 140.843 309.472 217.165 309.433 217.365C309.702 215.967 320.368 214.634 321.497 214.47C352.961 209.82 376.364 239.085 378.685 267.926C381.566 303.7 353.896 329.036 322.383 339.945" stroke="#473C33" stroke-width="5.5" stroke-miterlimit="10"/>
<path d="M318.32 356.729C317.388 360.008 316.712 361.882 316.712 361.882H316.226C316.994 360.21 317.692 358.493 318.32 356.729Z" fill="#353642"/>
<path d="M232.474 227.327C232.474 227.327 231.365 234.061 230.216 240.159C226.934 240.195 223.653 240.221 220.407 240.248C218.766 231.012 220.548 223.779 222.665 218.958C225.333 225.042 229.363 226.893 232.474 227.327Z" fill="#97372C"/>
<path d="M286.416 251.626C279.743 248.033 272.631 245.325 265.258 243.569L262.842 243.152C262.842 243.152 261.044 239.063 261.034 239.05C260.19 236.907 258.792 234.061 258.359 231.803C257.831 229.136 257.703 226.405 257.978 223.7C258.451 219.683 260.322 211.186 263.702 208.508C266.521 206.289 267.683 206.756 269.281 203.287C270.43 200.812 270.896 196.654 268.664 194.829C266.19 192.827 265.133 193.844 262.173 194.153C250.922 195.269 244.493 187.172 240.358 177.815C239.701 176.296 239.019 174.691 237.945 173.398C236.715 171.908 235.011 171.573 233.617 170.369C233.022 169.85 232.616 169.003 232.901 168.268C233.069 167.917 233.314 167.607 233.617 167.362C236.253 164.934 239.418 163.153 242.862 162.161C248.309 160.586 254.065 160.406 259.6 161.639C265.376 163.552 270.568 167.175 274.063 172.712C278.884 180.362 280.046 188.298 277.345 196.207C274.578 204.307 271.49 213.822 276.689 221.616C283.61 231.971 287.782 239.253 286.416 251.626Z" fill="#97372C"/>
<path d="M230.23 240.158C226.948 240.194 223.666 240.22 220.42 240.247C195.687 240.375 172.015 240.03 147.203 244.48" stroke="black" stroke-width="5.5" stroke-miterlimit="10"/>
<path d="M262.452 242.912C263.394 243.119 264.326 243.335 265.258 243.568C268.891 244.446 272.468 245.542 275.97 246.85C279.563 248.187 283.054 249.782 286.416 251.622C286.42 251.619 286.425 251.617 286.429 251.617C286.434 251.617 286.439 251.619 286.443 251.622C291.733 254.489 296.623 258.04 300.985 262.183C304.632 265.737 307.786 269.765 310.361 274.159C310.384 274.176 310.401 274.199 310.411 274.225C312.5 277.732 314.313 281.396 315.836 285.183C320.378 296.371 322.954 309.253 323.348 322.072C323.706 334.179 322.111 346.234 318.336 356.729C317.709 358.493 317.011 360.211 316.243 361.882C316.193 362.01 316.128 362.125 316.078 362.253" stroke="black" stroke-width="5.5" stroke-miterlimit="10"/>
<path d="M276.712 362.089C276.712 362.089 276.712 362.063 276.712 362.05C276.733 361.995 276.749 361.939 276.761 361.882" stroke="black" stroke-width="5.5" stroke-miterlimit="10"/>
<path d="M268.051 288.285C268.051 288.285 275.192 291.754 279.885 302.584C282.245 308.029 283.994 315.351 283.893 325.033C283.893 325.033 283.893 325.033 283.893 325.059C283.84 331.232 283.026 338.36 281.136 346.575V346.621" stroke="black" stroke-width="5.5" stroke-miterlimit="10"/>
<path d="M132.897 150.791C134.157 146.023 136.179 141.106 137.699 139.039C140.088 135.823 143.206 132.757 147.216 133.033C149.793 133.2 152.323 134.625 152.438 137.447C152.546 140.509 149.317 143.909 148.28 146.788C147.295 149.564 146.845 152.797 147.364 155.718C147.882 158.639 150.505 160.92 153.334 161.546C154.407 161.829 155.548 161.674 156.507 161.116C159.277 159.364 158.696 154.697 158.585 151.943C158.454 148.855 158.457 145.363 161.092 143.25C163.029 141.697 165.966 142.728 167.394 144.434C169.875 147.388 169.996 151.835 170.121 155.472C170.492 166.427 168.546 176.929 162.165 186.151C158.884 190.913 155.503 195.186 154.174 201.028C150.039 219.184 149.579 231.77 147.203 250.208" stroke="black" stroke-width="5.5" stroke-miterlimit="10"/>
<path d="M197.299 362.374C184.617 326.332 190.623 286.956 190.623 286.956L122.503 289.115C119.603 289.207 116.717 288.676 114.039 287.558C111.361 286.44 108.954 284.761 106.98 282.635C105.006 280.508 103.51 277.983 102.594 275.23C101.678 272.476 101.363 269.559 101.669 266.673L118.355 205.826L121.965 192.846C123.116 188.762 122.852 184.408 121.217 180.493L119.517 176.436C119.517 176.436 116.435 170.151 123.343 170.742C127.059 171.07 130.744 172.649 133.862 174.631C136.31 176.19 140.045 179.206 138.89 182.55C137.525 186.489 132.172 187.473 129.028 185.258" stroke="black" stroke-width="5.5" stroke-miterlimit="10"/>
<path d="M121.046 170.71C121.046 170.71 115.211 157.582 131.22 160.979C147.229 164.375 151.063 181.868 138.844 179.899" stroke="black" stroke-width="5.5" stroke-miterlimit="10"/>
<path d="M126.323 160.227C126.323 160.227 121.204 154.007 128.857 151.037C136.511 148.067 164.302 162.094 146.474 175.911" stroke="black" stroke-width="5.5" stroke-miterlimit="10"/>
<path d="M237.069 227.03C235.583 227.438 234.03 227.539 232.504 227.326C229.38 226.892 225.349 225.028 222.694 218.957C222.143 217.716 221.695 216.432 221.355 215.117C220.003 210.092 219.412 203.102 220.203 193.354C220.357 191.48 220.587 189.577 220.906 187.677C221.433 184.371 222.282 181.125 223.443 177.985C223.443 177.985 223.443 177.959 223.469 177.946C226.363 170.292 231.454 163.833 240.013 161.349C246.432 159.497 253.256 159.596 259.619 161.631C265.396 163.544 270.588 167.168 274.083 172.704C278.904 180.355 280.066 188.29 277.365 196.2C274.598 204.3 271.51 213.814 276.708 221.609C283.62 231.979 287.791 239.262 286.452 251.635" stroke="black" stroke-width="5.5" stroke-miterlimit="10"/>
<path d="M217.794 240.631C215.28 228.576 218.674 219.787 221.339 215.117" stroke="black" stroke-width="5.5" stroke-miterlimit="10"/>
<path d="M220.906 187.664C220.906 187.664 226.409 181.911 232.786 190.998" stroke="black" stroke-width="5.5" stroke-miterlimit="10"/>
<path d="M234.919 216.633C237.246 218.139 240.397 217.204 242.11 214.883C243.971 212.366 244.716 209.005 245.12 205.957C245.146 205.737 245.176 205.52 245.195 205.3C242.356 209.76 236.846 210.83 231.995 211.296C232.179 212.755 232.722 214.145 233.574 215.343C233.939 215.853 234.395 216.29 234.919 216.633Z" stroke="black" stroke-width="5.5" stroke-linecap="round" stroke-linejoin="round"/>
<path d="M260.195 236.714L260.181 236.699" stroke="black" stroke-width="5.5" stroke-miterlimit="10"/>
<path d="M238.543 185.894C238.543 185.894 240.413 182.865 246.807 185.097C253.2 187.329 253.275 190.975 253.275 190.975" stroke="black" stroke-width="5.5" stroke-miterlimit="10"/>
<path d="M224.01 193.427C224.01 193.427 226.964 191.934 229.278 193.427" stroke="black" stroke-width="5.5" stroke-miterlimit="10"/>
<path d="M239.928 194.802C239.928 194.802 242.881 193.308 245.179 194.802" stroke="black" stroke-width="5.5" stroke-miterlimit="10"/>
<path d="M232.474 227.326C232.474 227.326 231.365 234.061 230.216 240.159C230.049 241.025 229.888 241.878 229.744 242.722C228.992 246.828 228.392 250.477 228.365 251.583C228.175 260.772 236.862 266.073 245.254 265.984C257.03 265.856 263.915 254.901 262.806 243.93C262.081 241.928 261.339 239.926 260.614 237.924C259.682 235.357 258.471 232.86 257.946 230.155C257.482 227.491 257.431 224.771 257.795 222.092C258.267 218.088 259.045 212.118 262.425 209.44C265.245 207.221 268.188 205.764 269.797 202.295C270.945 199.82 270.893 196.634 268.661 194.809C266.187 192.807 262.271 193.05 259.311 193.342C240.217 195.295 237.04 175.967 231.874 173.253C227.64 171.018 224.463 176.033 223.469 177.894L223.429 177.972C223.428 177.991 223.42 178.009 223.406 178.022C223.226 178.35 223.137 178.57 223.137 178.57" stroke="black" stroke-width="5.5" stroke-miterlimit="10"/>
<path d="M231.985 195.652C231.985 195.652 229.99 202.183 230.144 203.161C230.298 204.139 232.625 203.456 232.625 203.456" stroke="black" stroke-width="5.5" stroke-miterlimit="10"/>
<path d="M247.622 202.544C250.679 199.493 250.623 194.48 247.497 191.349C244.371 188.218 239.359 188.153 236.302 191.205C233.245 194.256 233.301 199.269 236.427 202.4C239.553 205.531 244.565 205.596 247.622 202.544Z" stroke="black" stroke-width="5.5" stroke-miterlimit="10"/>
<path d="M227.672 200.12C230.729 197.068 230.673 192.056 227.547 188.925C224.421 185.794 219.409 185.729 216.352 188.781C213.295 191.832 213.351 196.844 216.477 199.976C219.603 203.107 224.615 203.172 227.672 200.12Z" stroke="black" stroke-width="5.5" stroke-miterlimit="10"/>
<path d="M221.838 188.37C222.709 188.366 223.572 188.544 224.37 188.894C225.168 189.244 225.884 189.757 226.471 190.401C227.059 191.044 227.505 191.804 227.781 192.63C228.057 193.457 228.156 194.332 228.073 195.199C227.935 196.658 227.256 198.012 226.17 198.996C225.085 199.98 223.67 200.522 222.205 200.516C221.334 200.52 220.471 200.341 219.673 199.991C218.875 199.642 218.159 199.129 217.572 198.485C216.984 197.841 216.538 197.082 216.262 196.256C215.986 195.429 215.887 194.554 215.97 193.686C216.108 192.228 216.787 190.874 217.872 189.89C218.958 188.906 220.373 188.364 221.838 188.37ZM221.838 187.464C220.149 187.46 218.52 188.086 217.27 189.221C216.02 190.356 215.239 191.917 215.08 193.598C214.911 195.453 215.47 197.302 216.639 198.752C217.809 200.202 219.496 201.141 221.345 201.369C221.629 201.403 221.913 201.421 222.199 201.422C223.889 201.429 225.52 200.803 226.772 199.668C228.025 198.533 228.807 196.971 228.966 195.288C229.135 193.433 228.576 191.584 227.407 190.134C226.237 188.683 224.55 187.745 222.701 187.516C222.418 187.483 222.133 187.465 221.848 187.464H221.838Z" fill="white"/>
<path d="M234.079 195.911L229.892 195.402" stroke="black" stroke-width="5.5" stroke-miterlimit="10"/>
<path d="M246.98 201.901C249.69 199.195 249.641 194.752 246.87 191.976C244.099 189.2 239.655 189.143 236.944 191.849C234.234 194.554 234.283 198.999 237.054 201.774C239.825 204.55 244.269 204.607 246.98 201.901Z" fill="#3FBDF1"/>
<path d="M227.032 199.478C229.744 196.771 229.695 192.325 226.922 189.548C224.15 186.771 219.704 186.714 216.992 189.421C214.28 192.128 214.33 196.574 217.102 199.351C219.874 202.129 224.32 202.185 227.032 199.478Z" fill="#3FBDF1"/>
<path d="M158.02 85.4316C148.503 85.9173 140.626 93.5445 139.868 103.036C139.642 105.684 139.97 108.35 140.831 110.865C141.692 113.379 143.068 115.687 144.87 117.641C146.198 119.102 147.749 120.346 149.464 121.326C149.912 121.584 150.335 121.883 150.728 122.219C153.296 123.516 156.133 124.193 159.01 124.198C161.887 124.202 164.726 123.534 167.298 122.245C167.673 121.898 168.088 121.598 168.536 121.352C170.321 120.331 171.935 119.035 173.317 117.513C173.353 117.463 173.391 117.416 173.432 117.371C175.94 114.533 177.554 111.017 178.071 107.265C178.589 103.514 177.987 99.6926 176.341 96.2814C174.696 92.8701 172.079 90.0207 168.821 88.0906C165.562 86.1605 161.806 85.2353 158.024 85.4316H158.02ZM169.934 115.497C169.897 115.525 169.868 115.559 169.845 115.599C168.774 116.77 167.526 117.767 166.146 118.553C165.803 118.741 165.485 118.973 165.201 119.242C163.218 120.235 161.03 120.752 158.811 120.752C156.593 120.752 154.405 120.235 152.421 119.242C152.114 118.98 151.785 118.745 151.437 118.54C148.786 117.015 146.672 114.708 145.384 111.934C144.096 109.16 143.698 106.056 144.245 103.047C144.791 100.039 146.255 97.2725 148.435 95.1284C150.616 92.9847 153.406 91.5675 156.424 91.0723C159.441 90.577 162.539 91.0273 165.29 92.3617C168.042 93.6962 170.313 95.8491 171.792 98.5252C173.272 101.202 173.887 104.27 173.554 107.31C173.221 110.35 171.955 113.212 169.931 115.504L169.934 115.497Z" fill="#F7C64B"/>
<path d="M167.292 122.248C166.536 122.933 165.933 123.77 165.522 124.704C165.11 125.637 164.899 126.646 164.903 127.667V128.546C164.903 131.618 162.677 134.372 159.651 134.68C158.834 134.764 158.008 134.676 157.226 134.421C156.444 134.166 155.725 133.75 155.114 133.201C154.502 132.651 154.013 131.979 153.677 131.229C153.341 130.479 153.166 129.667 153.163 128.845V127.667C153.161 126.641 152.945 125.627 152.528 124.69C152.111 123.752 151.502 122.913 150.741 122.225C153.309 123.518 156.145 124.193 159.02 124.197C161.896 124.201 164.733 123.534 167.305 122.248H167.292Z" fill="#353642"/>
<path d="M167.292 122.248C166.536 122.933 165.933 123.77 165.522 124.704C165.11 125.637 164.899 126.646 164.903 127.667V128.546C164.903 131.618 162.677 134.372 159.651 134.68C158.834 134.764 158.008 134.676 157.226 134.421C156.444 134.166 155.725 133.75 155.114 133.201C154.502 132.651 154.013 131.979 153.677 131.229C153.341 130.479 153.166 129.667 153.163 128.845V127.667C153.161 126.641 152.945 125.627 152.528 124.69C152.111 123.752 151.502 122.913 150.741 122.225C153.309 123.518 156.145 124.193 159.02 124.197C161.896 124.201 164.733 123.534 167.305 122.248H167.292Z" stroke="#473C33" stroke-width="5.5" stroke-miterlimit="10"/>
<path d="M178.25 104.635C178.26 109.331 176.543 113.866 173.426 117.379C173.387 117.421 173.351 117.466 173.317 117.513C171.933 119.039 170.315 120.336 168.526 121.356C168.081 121.605 167.667 121.904 167.292 122.249C164.72 123.535 161.883 124.202 159.007 124.198C156.132 124.194 153.297 123.519 150.728 122.226C150.336 121.885 149.911 121.583 149.461 121.323C146.291 119.501 143.706 116.814 142.007 113.576C140.308 110.338 139.566 106.684 139.868 103.04C140.268 98.0873 142.569 93.4824 146.29 90.1899C150.011 86.8975 154.862 85.1738 159.826 85.3803C164.79 85.5864 169.482 87.7068 172.916 91.2963C176.351 94.8861 178.263 99.6662 178.25 104.635Z" stroke="#FEA121" stroke-width="5.5" stroke-miterlimit="10"/>
<path d="M153.593 124.198L149.189 109.6L148.086 105.465C148.086 105.341 148.127 105.22 148.202 105.121C148.278 105.023 148.384 104.952 148.504 104.919C148.625 104.887 148.752 104.896 148.867 104.943C148.982 104.991 149.077 105.075 149.139 105.183C150.124 106.922 151.68 109.105 153.229 109.049C155.798 108.957 153.688 101.156 151.588 101.973C149.487 102.79 153.514 107.946 157.663 108.589C161.811 109.233 160.675 102.258 157.663 101.983C154.65 101.707 156.727 107.582 162.142 108.589C167.558 109.597 166.547 103.634 165.08 102.442C163.613 101.251 164.069 108.13 167.469 109.233C168.546 109.584 169.402 108.832 169.822 107.897C170.065 107.352 169.94 104.595 169.442 105.445C168.424 107.188 168.224 109.364 167.725 111.287C166.665 115.357 165.044 119.252 164.115 123.358" stroke="white" stroke-width="5.5" stroke-miterlimit="10"/>
<path d="M124.646 362.374C126.97 361.284 341.254 362.374 341.254 362.374" stroke="black" stroke-width="5.5" stroke-miterlimit="10"/>
<path d="M159.011 78.5623L158.821 67" stroke="white" stroke-width="7.34" stroke-miterlimit="10"/>
<path d="M136.96 89.3172L128.956 80.9713" stroke="white" stroke-width="7.34" stroke-miterlimit="10"/>
<path d="M181.145 89.8357L189.327 81.6636" stroke="white" stroke-width="7.34" stroke-miterlimit="10"/>
<path d="M303.804 346.601L304.083 346.627C303.932 346.654 303.755 346.68 303.601 346.716H303.364L281.142 346.601H278.632L241.296 346.411C241.155 346.411 241.014 346.411 240.873 346.411C240.839 346.417 240.805 346.417 240.771 346.411C240.771 346.411 240.771 346.411 240.748 346.411C240.513 346.413 240.278 346.396 240.046 346.361C242.043 346.136 243.935 345.349 245.504 344.094C245.75 343.887 246.003 343.69 246.232 343.467L246.259 343.441C246.312 343.397 246.363 343.35 246.41 343.299C248.307 341.423 249.443 338.911 249.6 336.246C249.6 336.118 249.6 335.977 249.6 335.849V335.646C249.588 333.159 248.721 330.751 247.144 328.828C245.567 326.905 243.375 325.583 240.939 325.085C240.935 325.081 240.93 325.08 240.925 325.08C240.92 325.08 240.916 325.081 240.912 325.085C240.669 325.022 240.39 324.983 240.134 324.943L240.683 324.907C240.772 324.901 240.862 324.901 240.952 324.907C241.103 324.907 241.244 324.907 241.385 324.907L272.928 325.071L278.733 325.098L283.886 325.124H286.285H286.577C286.617 325.124 286.64 325.124 286.679 325.124C289.339 325.392 291.806 326.637 293.601 328.618C295.397 330.599 296.394 333.176 296.4 335.849C296.4 336.358 296.361 336.866 296.285 337.369C295.913 339.867 294.678 342.157 292.793 343.839C290.909 345.522 288.494 346.491 285.97 346.578C285.855 346.578 285.74 346.578 285.642 346.578H304.382C304.109 346.588 303.932 346.588 303.804 346.601Z" fill="white"/>
<path d="M253.62 359.645C254.329 360.357 255.172 360.923 256.1 361.308C257.028 361.693 258.024 361.891 259.029 361.889H240.722C237.217 361.889 235.313 361.036 233.925 359.645C232.491 358.209 231.684 356.265 231.68 354.236C231.68 350.042 235.123 346.596 240.722 346.596H259.029C257.516 346.593 256.036 347.04 254.777 347.879C253.519 348.719 252.538 349.913 251.958 351.31C251.379 352.708 251.228 354.246 251.523 355.73C251.819 357.214 252.549 358.576 253.62 359.645Z" fill="#ECB991"/>
<path d="M303.88 346.626C303.894 346.622 303.908 346.623 303.922 346.628C303.908 346.627 303.894 346.627 303.88 346.626C303.83 346.622 303.78 346.614 303.732 346.601H285.97C288.28 346.478 290.488 345.614 292.268 344.137C292.536 343.918 292.793 343.685 293.036 343.438C293.239 343.24 293.431 343.031 293.61 342.811C293.748 342.659 293.875 342.497 293.991 342.328C294.067 342.237 294.132 342.148 294.195 342.059C294.316 341.897 294.426 341.726 294.523 341.547C294.672 341.339 294.805 341.12 294.92 340.891C295.042 340.672 295.152 340.447 295.248 340.215C295.297 340.113 295.337 339.998 295.402 339.887C295.491 339.657 295.566 339.427 295.642 339.198C295.747 338.87 295.849 338.522 295.924 338.18C295.97 337.996 296.004 337.808 296.026 337.619C296.041 337.573 296.049 337.526 296.052 337.478C296.067 337.441 296.075 337.403 296.078 337.363C296.078 337.235 296.114 337.12 296.128 336.992V336.916C296.176 336.561 296.198 336.202 296.193 335.843C296.198 335.678 296.189 335.512 296.167 335.348V335.233C296.167 335.07 296.154 334.908 296.128 334.747C296.041 333.862 295.839 332.991 295.527 332.158C295.354 331.658 295.134 331.175 294.871 330.717C294.63 330.255 294.349 329.816 294.03 329.404C293.948 329.284 293.858 329.169 293.761 329.06C293.722 329.02 293.686 328.968 293.633 328.918C293.463 328.695 293.276 328.486 293.072 328.292C292.921 328.141 292.744 327.986 292.59 327.822C292.435 327.658 292.179 327.465 291.963 327.31C291.746 327.156 291.605 327.045 291.415 326.917C291.132 326.711 290.834 326.528 290.522 326.368C290.232 326.199 289.929 326.053 289.616 325.932C289.254 325.777 288.884 325.641 288.507 325.525C288.379 325.477 288.245 325.443 288.11 325.423C287.759 325.323 287.401 325.247 287.04 325.194C286.859 325.154 286.682 325.141 286.492 325.118H286.466C286.441 325.124 286.415 325.124 286.39 325.118H286.466H286.492C286.682 325.141 286.859 325.154 287.04 325.194C287.401 325.247 287.759 325.323 288.11 325.423C288.245 325.443 288.379 325.477 288.507 325.525C288.884 325.641 289.254 325.777 289.616 325.932C289.929 326.053 290.232 326.199 290.522 326.368C290.834 326.528 291.132 326.711 291.415 326.917C291.605 327.045 291.746 327.156 291.963 327.31C292.179 327.465 292.435 327.658 292.59 327.822C292.744 327.986 292.921 328.141 293.072 328.292C293.276 328.486 293.463 328.695 293.633 328.918C293.686 328.968 293.722 329.02 293.761 329.06C293.858 329.169 293.948 329.284 294.03 329.404C294.349 329.816 294.63 330.255 294.871 330.717C295.134 331.175 295.354 331.658 295.527 332.158C295.839 332.991 296.041 333.862 296.128 334.747C296.154 334.908 296.167 335.07 296.167 335.233V335.348C296.189 335.512 296.198 335.678 296.193 335.843C296.198 336.202 296.176 336.561 296.128 336.916V336.992C296.114 337.12 296.078 337.235 296.078 337.363C296.075 337.403 296.067 337.441 296.052 337.478C296.049 337.526 296.041 337.573 296.026 337.619C296.004 337.808 295.97 337.996 295.924 338.18C295.849 338.522 295.747 338.87 295.642 339.198C295.566 339.427 295.491 339.657 295.402 339.887C295.337 339.998 295.297 340.113 295.248 340.215C295.152 340.447 295.042 340.672 294.92 340.891C294.805 341.12 294.672 341.339 294.523 341.547C294.426 341.726 294.316 341.897 294.195 342.059C294.132 342.148 294.067 342.237 293.991 342.328C293.875 342.497 293.748 342.659 293.61 342.811C293.431 343.031 293.239 343.24 293.036 343.438C292.793 343.685 292.536 343.918 292.268 344.137C290.488 345.614 288.28 346.478 285.97 346.601H303.732C303.774 346.595 303.818 346.595 303.86 346.601H303.732C303.78 346.614 303.83 346.622 303.88 346.626Z" fill="#3FBDF1"/>
<path d="M314.136 336.005C314.136 336.208 314.136 336.425 314.109 336.628C314.083 336.973 314.047 337.304 313.995 337.636C313.968 337.813 313.932 337.994 313.893 338.171C313.817 338.499 313.729 338.86 313.627 339.191C313.512 339.557 313.375 339.915 313.217 340.265C313.166 340.402 313.102 340.533 313.026 340.658C313.026 340.698 313 340.724 312.974 340.76C312.898 340.928 312.81 341.088 312.721 341.246C312.58 341.502 312.426 341.755 312.262 341.998C312.068 342.293 311.851 342.559 311.635 342.828C311.415 343.095 311.18 343.35 310.932 343.593C310.673 343.857 310.397 344.105 310.105 344.334L309.777 344.6C309.404 344.882 309.011 345.138 308.602 345.365C308.412 345.467 308.208 345.572 308.005 345.673C307.986 345.687 307.963 345.695 307.939 345.696C307.71 345.811 307.48 345.903 307.25 345.992C307.02 346.08 306.791 346.169 306.551 346.244C306.308 346.31 306.065 346.385 305.822 346.438L305.622 346.474C305.432 346.517 305.242 346.553 305.048 346.582C304.705 346.641 304.358 346.682 304.011 346.704C303.799 346.726 303.587 346.735 303.374 346.73C303.374 346.73 303.335 346.73 303.322 346.73L281.136 346.622L275.908 346.596L241.06 346.418C240.932 346.416 240.803 346.407 240.676 346.392C240.384 346.392 240.102 346.366 239.81 346.343C242.334 346.042 244.673 344.865 246.419 343.016C248.165 341.168 249.207 338.765 249.363 336.228C249.363 336.1 249.363 335.959 249.363 335.818V335.68C249.367 333.179 248.504 330.755 246.923 328.818C245.342 326.881 243.139 325.551 240.689 325.053C240.433 325 240.177 324.964 239.911 324.925C240.165 324.895 240.42 324.879 240.676 324.876C240.766 324.869 240.856 324.869 240.945 324.876H241.162L276.009 325.053L283.886 325.092H286.462H286.679L303.417 325.181C303.966 325.183 304.515 325.226 305.058 325.309C306.444 325.536 307.774 326.03 308.973 326.763C309.127 326.851 309.265 326.953 309.406 327.042C309.832 327.333 310.236 327.653 310.617 328C310.745 328.115 310.86 328.23 310.988 328.358C311.961 329.343 312.74 330.502 313.286 331.774L313.479 332.273C313.544 332.435 313.599 332.6 313.643 332.769C313.971 333.816 314.137 334.907 314.136 336.005Z" stroke="black" stroke-width="5.5" stroke-linecap="square" stroke-linejoin="round"/>
<path d="M296.177 335.811C296.179 336.169 296.161 336.528 296.124 336.884C296.124 336.91 296.124 336.933 296.124 336.959C296.098 337.127 296.075 337.288 296.049 337.445C296.046 337.493 296.037 337.541 296.023 337.586C296.001 337.775 295.967 337.963 295.921 338.148C295.845 338.476 295.744 338.833 295.639 339.165C295.563 339.395 295.488 339.624 295.399 339.854C295.333 339.969 295.294 340.084 295.245 340.182C295.149 340.414 295.039 340.64 294.917 340.858C294.801 341.087 294.669 341.307 294.519 341.515C294.422 341.693 294.313 341.864 294.191 342.027C294.129 342.115 294.063 342.204 293.988 342.296C293.871 342.465 293.744 342.626 293.607 342.778C293.428 342.998 293.236 343.208 293.033 343.405C292.789 343.647 292.532 343.876 292.265 344.091C290.489 345.576 288.281 346.448 285.97 346.579C285.855 346.579 285.74 346.579 285.642 346.579H241.109C240.702 346.579 240.282 346.556 239.859 346.517C240.133 346.484 240.406 346.437 240.676 346.375C240.697 346.383 240.72 346.383 240.742 346.375H240.765C242.834 345.944 244.732 344.917 246.226 343.422L246.252 343.395C248.152 341.476 249.262 338.913 249.363 336.214C249.363 336.087 249.363 335.945 249.363 335.804V335.791C249.343 333.161 248.366 330.628 246.614 328.665C244.863 326.702 242.457 325.444 239.846 325.125C240.128 325.089 240.407 325.076 240.689 325.062C240.761 325.049 240.834 325.049 240.906 325.062C240.909 325.059 240.914 325.058 240.919 325.058C240.924 325.058 240.928 325.059 240.932 325.062C240.986 325.056 241.042 325.056 241.096 325.062H285.396C285.704 325.062 285.996 325.062 286.292 325.102H286.393C286.418 325.108 286.444 325.108 286.469 325.102H286.521L287.043 325.177C287.405 325.231 287.762 325.307 288.113 325.407C288.241 325.433 288.382 325.469 288.51 325.509C288.887 325.625 289.257 325.761 289.62 325.916C289.925 326.044 290.233 326.198 290.525 326.352C290.834 326.516 291.132 326.7 291.418 326.9C291.608 327.028 291.789 327.153 291.966 327.294C292.143 327.435 292.386 327.622 292.593 327.806C292.8 327.99 292.921 328.134 293.075 328.275C293.269 328.482 293.459 328.686 293.637 328.902C293.689 328.952 293.725 329.004 293.765 329.043L294.034 329.388C294.341 329.808 294.622 330.246 294.874 330.701C295.122 331.168 295.341 331.649 295.53 332.142C295.832 332.978 296.033 333.848 296.131 334.731C296.131 334.898 296.157 335.059 296.17 335.217V335.332C296.177 335.479 296.177 335.647 296.177 335.811Z" stroke="black" stroke-width="5.5" stroke-linecap="square" stroke-linejoin="round"/>
<path d="M304.365 361.882H240.715C239.297 361.92 237.882 361.718 236.531 361.285C236.262 361.183 236.009 361.081 235.766 360.957C235.523 360.829 235.307 360.701 235.09 360.573C234.874 360.445 234.683 360.281 234.49 360.126C234.299 359.959 234.122 359.798 233.955 359.627C233.081 358.755 232.433 357.682 232.067 356.503C231.835 355.769 231.719 355.002 231.723 354.232C231.721 353.934 231.738 353.635 231.775 353.339C231.824 352.923 231.913 352.514 232.041 352.115C232.219 351.485 232.495 350.887 232.858 350.343C233.066 349.987 233.314 349.657 233.597 349.358C233.771 349.165 233.955 348.981 234.148 348.807C235.704 347.419 237.962 346.562 240.755 346.562H304.365C304.109 346.562 303.932 346.562 303.804 346.562C303.762 346.555 303.718 346.555 303.676 346.562C303.548 346.562 303.574 346.562 303.637 346.562C303.64 346.565 303.645 346.567 303.65 346.567C303.655 346.567 303.659 346.565 303.663 346.562C303.692 346.568 303.722 346.568 303.752 346.562C303.778 346.562 303.791 346.562 303.817 346.562C303.676 346.588 303.535 346.601 303.394 346.638H303.364C303.364 346.638 303.325 346.638 303.312 346.638C301.572 346.983 300.006 347.921 298.878 349.29C297.751 350.659 297.131 352.376 297.125 354.15C297.135 356.02 297.826 357.823 299.067 359.222C300.309 360.622 302.017 361.521 303.873 361.754C303.561 361.872 303.269 361.882 304.365 361.882Z" stroke="black" stroke-width="5.5" stroke-linecap="square" stroke-linejoin="round"/>
<path d="M303.853 361.845C303.561 361.872 303.269 361.881 302.974 361.881H259.019C258.016 361.881 257.023 361.682 256.097 361.297C255.171 360.912 254.33 360.348 253.623 359.637C252.75 358.764 252.102 357.692 251.736 356.512C251.509 355.777 251.399 355.011 251.408 354.241C251.412 352.215 252.217 350.272 253.649 348.838C255.08 347.404 257.022 346.595 259.048 346.588H302.974C303.19 346.588 303.42 346.588 303.63 346.614C303.668 346.62 303.707 346.62 303.745 346.614C303.771 346.614 303.784 346.614 303.811 346.614C303.67 346.64 303.528 346.653 303.387 346.689H303.364C303.364 346.689 303.325 346.689 303.312 346.689C301.572 347.036 300.006 347.973 298.878 349.342C297.751 350.711 297.132 352.428 297.125 354.202C297.135 356.072 297.826 357.876 299.067 359.275C300.309 360.674 302.017 361.574 303.873 361.806L303.853 361.845Z" stroke="black" stroke-width="5.5" stroke-linecap="square" stroke-linejoin="round"/>
<path d="M251.378 354.241C251.378 356.268 252.183 358.211 253.616 359.644C255.049 361.077 256.992 361.881 259.019 361.881H240.715C237.22 361.881 235.307 361.028 233.915 359.637C233.206 358.929 232.644 358.088 232.261 357.162C231.878 356.236 231.682 355.243 231.683 354.241C231.683 350.034 235.116 346.588 240.715 346.588H259.019C256.992 346.595 255.051 347.404 253.619 348.838C252.187 350.272 251.382 352.215 251.378 354.241Z" stroke="black" stroke-width="5.5" stroke-linecap="square" stroke-linejoin="round"/>
<path d="M304.365 361.882H302.974C303.269 361.882 303.561 361.882 303.853 361.846C303.561 361.873 303.269 361.882 304.365 361.882Z" stroke="black" stroke-width="5.5" stroke-linecap="square" stroke-linejoin="round"/>
<path d="M303.752 346.621C303.499 346.621 303.23 346.581 302.974 346.581H304.365C303.394 346.588 303.509 346.621 303.752 346.621Z" stroke="black" stroke-width="5.5" stroke-linecap="square" stroke-linejoin="round"/>
<path opacity="0.54" d="M113.012 333.093L90.2287 274.727C89.9464 273.598 89.9252 272.419 90.1666 271.281C90.4081 270.142 90.9058 269.074 91.6221 268.156C92.3384 267.239 93.2543 266.497 94.3003 265.986C95.3464 265.476 96.495 265.21 97.659 265.21H188.168C190.2 265.209 192.173 265.893 193.769 267.15C195.365 268.408 196.492 270.166 196.967 272.141L221.91 330.501C222.18 331.627 222.192 332.8 221.944 333.931C221.696 335.062 221.194 336.123 220.477 337.032C219.76 337.942 218.846 338.677 217.803 339.182C216.761 339.687 215.618 339.95 214.46 339.949H121.784C119.767 339.949 117.807 339.274 116.218 338.032C114.628 336.789 113.5 335.051 113.012 333.093Z" fill="white"/>
<path d="M113.012 333.093L90.2287 274.727C89.9464 273.598 89.9252 272.419 90.1666 271.281C90.4081 270.142 90.9058 269.074 91.6221 268.156C92.3384 267.239 93.2543 266.497 94.3003 265.986C95.3464 265.476 96.495 265.21 97.659 265.21H188.168C190.2 265.209 192.173 265.893 193.769 267.15C195.365 268.408 196.492 270.166 196.967 272.141L221.91 330.501C222.18 331.627 222.192 332.8 221.944 333.931C221.696 335.062 221.194 336.123 220.477 337.032C219.76 337.942 218.846 338.677 217.803 339.182C216.761 339.687 215.618 339.95 214.46 339.949H121.784C119.767 339.949 117.807 339.274 116.218 338.032C114.628 336.789 113.5 335.051 113.012 333.093Z" fill="#E98862"/>
<path d="M113.012 333.093L90.2287 274.727C89.9464 273.598 89.9252 272.419 90.1666 271.281C90.4081 270.142 90.9058 269.074 91.6221 268.156C92.3384 267.239 93.2543 266.497 94.3003 265.986C95.3464 265.476 96.495 265.21 97.659 265.21H188.168C190.2 265.209 192.173 265.893 193.769 267.15C195.365 268.408 196.492 270.166 196.967 272.141L221.91 330.501C222.18 331.627 222.192 332.8 221.944 333.931C221.696 335.062 221.194 336.123 220.477 337.032C219.76 337.942 218.846 338.677 217.803 339.182C216.761 339.687 215.618 339.95 214.46 339.949H121.784C119.767 339.949 117.807 339.274 116.218 338.032C114.628 336.789 113.5 335.051 113.012 333.093Z" stroke="black" stroke-width="5.5" stroke-linecap="square" stroke-linejoin="round"/>
<path d="M116.34 330.73L95.3354 276.883C95.0746 275.842 95.0545 274.755 95.2766 273.705C95.4986 272.655 95.957 271.669 96.6169 270.823C97.2768 269.976 98.1208 269.291 99.085 268.82C100.049 268.348 101.108 268.102 102.181 268.101H185.667C187.542 268.101 189.362 268.732 190.834 269.892C192.306 271.053 193.345 272.675 193.784 274.497L216.793 328.321C217.043 329.36 217.054 330.442 216.825 331.486C216.596 332.53 216.133 333.509 215.472 334.348C214.81 335.187 213.967 335.865 213.006 336.332C212.044 336.798 210.99 337.041 209.921 337.041H124.44C122.579 337.042 120.772 336.421 119.305 335.278C117.837 334.135 116.794 332.534 116.34 330.73Z" fill="#E98862"/>
<path d="M179.635 278.002C178.529 276.338 176.721 275.599 175.592 276.361C174.463 277.122 174.446 279.068 175.552 280.732C175.727 280.986 175.922 281.224 176.137 281.444L167.932 298.763C166.619 297.89 165.185 297.674 164.154 298.363C163.822 298.605 163.546 298.917 163.347 299.277C163.148 299.637 163.03 300.036 163.002 300.447L157.397 298.553L152.497 296.912L150.895 296.387C150.694 295.786 150.415 295.213 150.065 294.684C148.509 292.347 145.969 291.31 144.384 292.363C142.799 293.417 142.782 296.111 144.295 298.432L134.971 311.176C132.937 309.505 130.537 308.99 128.877 310.092C126.619 311.599 126.579 315.521 128.801 318.855C128.89 318.987 128.992 319.098 129.084 319.223L122.858 327.73L122.802 327.812C122.627 328.048 122.501 328.318 122.433 328.605C122.365 328.891 122.357 329.188 122.407 329.478C122.458 329.768 122.568 330.045 122.729 330.291C122.89 330.538 123.099 330.749 123.345 330.912C123.59 331.075 123.866 331.186 124.156 331.238C124.445 331.291 124.742 331.284 125.03 331.219C125.316 331.153 125.587 331.029 125.825 330.855C126.062 330.681 126.262 330.461 126.412 330.207L131.949 321.875C133.695 322.889 135.559 323.082 136.914 322.177C139.074 320.739 139.175 317.103 137.242 313.873L146.186 300.375C147.498 301.271 148.962 301.5 150.006 300.808C150.589 300.397 150.987 299.771 151.112 299.068L151.768 299.256L156.754 300.618L163.134 302.337C163.328 303.101 163.649 303.827 164.085 304.484C165.638 306.817 168.181 307.857 169.766 306.804C171.352 305.75 171.371 303.003 169.819 300.67C169.59 300.331 169.333 300.012 169.051 299.715L176.859 282.061C177.801 282.718 178.828 282.866 179.586 282.37C180.731 281.638 180.748 279.669 179.635 278.002Z" fill="white"/>
<path d="M120.232 278.957H108.138C107.582 278.96 107.037 278.799 106.571 278.496C106.104 278.193 105.736 277.76 105.513 277.251C105.444 277.095 105.407 276.926 105.404 276.755C105.408 276.425 105.541 276.11 105.775 275.878C106.009 275.646 106.325 275.515 106.655 275.515H119.517C118.919 276.535 119.248 277.953 120.232 278.957Z" fill="#D7E8F0"/>
<path d="M128.063 277.717C128.061 278.046 127.929 278.361 127.697 278.593C127.464 278.826 127.148 278.956 126.819 278.957H120.232C119.228 277.953 118.919 276.535 119.527 275.515H125.336C125.891 275.512 126.435 275.67 126.901 275.972C127.367 276.273 127.736 276.704 127.961 277.211C128.029 277.371 128.063 277.543 128.063 277.717Z" fill="#6B6C70"/>
<path d="M125.037 278.957C125.001 279.023 124.962 279.086 124.919 279.147C124.052 280.326 122.182 280.437 120.728 279.374C120.554 279.249 120.39 279.109 120.239 278.957C119.234 277.953 118.926 276.535 119.533 275.514C119.566 275.447 119.606 275.383 119.651 275.324C120.508 274.139 122.379 274.037 123.832 275.091C124.009 275.218 124.175 275.36 124.328 275.514C125.326 276.522 125.634 277.927 125.037 278.957Z" fill="white"/>
<path d="M131.105 285.312C131.103 285.641 130.97 285.957 130.736 286.189C130.501 286.422 130.185 286.552 129.855 286.552H117.157C117.771 285.522 117.465 284.117 116.458 283.109H128.384C128.941 283.107 129.486 283.267 129.952 283.571C130.419 283.874 130.786 284.307 131.01 284.816C131.074 284.973 131.107 285.142 131.105 285.312Z" fill="#6B6C70"/>
<path d="M117.157 286.562H111.184C110.628 286.565 110.084 286.406 109.618 286.105C109.152 285.804 108.783 285.373 108.558 284.866C108.489 284.707 108.453 284.536 108.45 284.363C108.449 284.2 108.48 284.038 108.542 283.887C108.605 283.736 108.696 283.599 108.811 283.483C108.926 283.367 109.064 283.276 109.214 283.213C109.365 283.151 109.527 283.119 109.691 283.12H116.458C117.465 284.117 117.771 285.522 117.157 286.562Z" fill="#D7E8F0"/>
<path d="M119.301 286.537C119.273 286.605 119.237 286.669 119.192 286.728C118.336 287.916 116.462 288.017 115.008 286.964C114.828 286.835 114.658 286.692 114.499 286.537C113.515 285.533 113.186 284.125 113.794 283.094C113.826 283.028 113.865 282.965 113.912 282.907C114.775 281.726 116.646 281.618 118.103 282.678C118.275 282.804 118.437 282.943 118.588 283.094C119.609 284.092 119.914 285.497 119.301 286.537Z" fill="white"/>
<path d="M121.387 294.11H113.786C113.231 294.112 112.687 293.952 112.221 293.65C111.755 293.348 111.387 292.918 111.161 292.41C111.092 292.254 111.055 292.085 111.053 291.915C111.054 291.583 111.185 291.266 111.42 291.031C111.654 290.797 111.971 290.665 112.303 290.664H120.665C120.081 291.678 120.39 293.086 121.387 294.11Z" fill="#6B6C70"/>
<path d="M133.708 292.859C133.706 293.188 133.574 293.502 133.341 293.734C133.108 293.965 132.792 294.094 132.464 294.093H121.387C120.403 293.086 120.075 291.678 120.678 290.647H130.987C131.541 290.647 132.083 290.808 132.546 291.111C133.01 291.415 133.375 291.847 133.596 292.354C133.667 292.513 133.705 292.685 133.708 292.859Z" fill="#D7E8F0"/>
<path d="M126.182 294.11C126.15 294.177 126.11 294.239 126.064 294.297C125.208 295.485 123.337 295.587 121.883 294.533C121.708 294.403 121.543 294.262 121.387 294.11C120.403 293.103 120.075 291.695 120.678 290.664C120.713 290.599 120.753 290.536 120.797 290.477C121.663 289.299 123.534 289.194 124.988 290.247C125.16 290.375 125.324 290.514 125.477 290.664C126.468 291.655 126.796 293.07 126.182 294.11Z" fill="white"/>
<path d="M170.534 329.667H162.93C162.375 329.668 161.831 329.508 161.365 329.207C160.899 328.905 160.53 328.474 160.305 327.967C160.233 327.811 160.195 327.642 160.193 327.471C160.194 327.14 160.326 326.822 160.56 326.588C160.795 326.354 161.112 326.221 161.443 326.221H169.809C169.228 327.258 169.537 328.659 170.534 329.667Z" fill="#6B6C70"/>
<path d="M200.712 328.433C200.711 328.595 200.679 328.756 200.616 328.906C200.554 329.056 200.462 329.192 200.347 329.307C200.232 329.421 200.095 329.512 199.945 329.574C199.795 329.636 199.634 329.667 199.471 329.667H170.534C169.55 328.659 169.222 327.251 169.825 326.221H197.991C198.545 326.22 199.087 326.382 199.55 326.685C200.014 326.988 200.379 327.42 200.6 327.927C200.671 328.086 200.71 328.258 200.712 328.433Z" fill="#D7E8F0"/>
<path d="M175.329 329.667C175.297 329.733 175.257 329.796 175.211 329.854C174.355 331.042 172.484 331.144 171.03 330.09C170.855 329.961 170.689 329.82 170.534 329.667C169.55 328.659 169.222 327.251 169.825 326.221C169.86 326.155 169.9 326.093 169.944 326.034C170.81 324.855 172.681 324.75 174.135 325.804C174.307 325.931 174.471 326.07 174.624 326.221C175.628 327.228 175.936 328.643 175.329 329.667Z" fill="white"/>
</svg>
