<svg width="137" height="24" viewBox="0 0 137 24" fill="none" xmlns="http://www.w3.org/2000/svg">
<path d="M18.104 7.5744C18.104 8.87573 17.8053 10.0704 17.208 11.1584C16.6107 12.2251 15.6933 13.0891 14.456 13.7504C13.2187 14.4117 11.6827 14.7424 9.848 14.7424H6.456V22.8064H0.984V0.342396H9.848C11.64 0.342396 13.1547 0.651729 14.392 1.2704C15.6293 1.88906 16.5573 2.74239 17.176 3.83039C17.7947 4.91839 18.104 6.1664 18.104 7.5744ZM9.432 10.3904C10.4773 10.3904 11.256 10.1451 11.768 9.6544C12.28 9.16373 12.536 8.4704 12.536 7.5744C12.536 6.6784 12.28 5.98506 11.768 5.4944C11.256 5.00373 10.4773 4.7584 9.432 4.7584H6.456V10.3904H9.432ZM31.5768 23.0304C29.4648 23.0304 27.5234 22.5397 25.7528 21.5584C24.0034 20.5771 22.6061 19.2117 21.5608 17.4624C20.5367 15.6917 20.0247 13.7077 20.0247 11.5104C20.0247 9.31306 20.5367 7.33973 21.5608 5.59039C22.6061 3.84106 24.0034 2.47573 25.7528 1.4944C27.5234 0.513063 29.4648 0.0223961 31.5768 0.0223961C33.6888 0.0223961 35.6194 0.513063 37.3688 1.4944C39.1394 2.47573 40.5261 3.84106 41.5288 5.59039C42.5528 7.33973 43.0648 9.31306 43.0648 11.5104C43.0648 13.7077 42.5528 15.6917 41.5288 17.4624C40.5048 19.2117 39.1181 20.5771 37.3688 21.5584C35.6194 22.5397 33.6888 23.0304 31.5768 23.0304ZM31.5768 18.0384C33.3688 18.0384 34.7981 17.4411 35.8647 16.2464C36.9528 15.0517 37.4968 13.4731 37.4968 11.5104C37.4968 9.5264 36.9528 7.94773 35.8647 6.77439C34.7981 5.57973 33.3688 4.9824 31.5768 4.9824C29.7634 4.9824 28.3128 5.56906 27.2248 6.7424C26.1581 7.91573 25.6248 9.50506 25.6248 11.5104C25.6248 13.4944 26.1581 15.0837 27.2248 16.2784C28.3128 17.4517 29.7634 18.0384 31.5768 18.0384ZM51.581 18.5824H58.749V22.8064H46.109V0.342396H51.581V18.5824ZM66.831 18.5824H73.999V22.8064H61.359V0.342396H66.831V18.5824ZM84.737 23.0304C83.0943 23.0304 81.6223 22.7637 80.321 22.2304C79.0197 21.6971 77.9743 20.9077 77.185 19.8624C76.417 18.8171 76.0117 17.5584 75.969 16.0864H81.793C81.8783 16.9184 82.1663 17.5584 82.657 18.0064C83.1477 18.4331 83.7877 18.6464 84.577 18.6464C85.3877 18.6464 86.0277 18.4651 86.497 18.1024C86.9663 17.7184 87.201 17.1957 87.201 16.5344C87.201 15.9797 87.009 15.5211 86.625 15.1584C86.2623 14.7957 85.8037 14.4971 85.249 14.2624C84.7157 14.0277 83.9477 13.7611 82.945 13.4624C81.4943 13.0144 80.3103 12.5664 79.393 12.1184C78.4757 11.6704 77.6863 11.0091 77.025 10.1344C76.3637 9.25973 76.033 8.1184 76.033 6.7104C76.033 4.61973 76.7903 2.98773 78.305 1.8144C79.8197 0.619729 81.793 0.0223961 84.225 0.0223961C86.6997 0.0223961 88.6943 0.619729 90.209 1.8144C91.7237 2.98773 92.5343 4.6304 92.641 6.7424H86.721C86.6783 6.01706 86.4117 5.45173 85.921 5.0464C85.4303 4.61973 84.801 4.40639 84.033 4.40639C83.3717 4.40639 82.8383 4.58773 82.433 4.9504C82.0277 5.29173 81.825 5.79306 81.825 6.4544C81.825 7.17973 82.1663 7.74506 82.849 8.1504C83.5317 8.55573 84.5983 8.99306 86.049 9.4624C87.4997 9.95306 88.673 10.4224 89.569 10.8704C90.4863 11.3184 91.2757 11.9691 91.937 12.8224C92.5983 13.6757 92.929 14.7744 92.929 16.1184C92.929 17.3984 92.5983 18.5611 91.937 19.6064C91.297 20.6517 90.3583 21.4837 89.121 22.1024C87.8837 22.7211 86.4223 23.0304 84.737 23.0304ZM98.8565 23.0624C97.8965 23.0624 97.1072 22.7851 96.4885 22.2304C95.8912 21.6544 95.5925 20.9504 95.5925 20.1184C95.5925 19.2651 95.8912 18.5504 96.4885 17.9744C97.1072 17.3984 97.8965 17.1104 98.8565 17.1104C99.7952 17.1104 100.563 17.3984 101.161 17.9744C101.779 18.5504 102.089 19.2651 102.089 20.1184C102.089 20.9504 101.779 21.6544 101.161 22.2304C100.563 22.7851 99.7952 23.0624 98.8565 23.0624ZM110.8 0.342396V22.8064H105.328V0.342396H110.8ZM125.389 23.0304C123.277 23.0304 121.336 22.5397 119.565 21.5584C117.816 20.5771 116.419 19.2117 115.373 17.4624C114.349 15.6917 113.837 13.7077 113.837 11.5104C113.837 9.31306 114.349 7.33973 115.373 5.59039C116.419 3.84106 117.816 2.47573 119.565 1.4944C121.336 0.513063 123.277 0.0223961 125.389 0.0223961C127.501 0.0223961 129.432 0.513063 131.181 1.4944C132.952 2.47573 134.339 3.84106 135.341 5.59039C136.365 7.33973 136.877 9.31306 136.877 11.5104C136.877 13.7077 136.365 15.6917 135.341 17.4624C134.317 19.2117 132.931 20.5771 131.181 21.5584C129.432 22.5397 127.501 23.0304 125.389 23.0304ZM125.389 18.0384C127.181 18.0384 128.611 17.4411 129.677 16.2464C130.765 15.0517 131.309 13.4731 131.309 11.5104C131.309 9.5264 130.765 7.94773 129.677 6.77439C128.611 5.57973 127.181 4.9824 125.389 4.9824C123.576 4.9824 122.125 5.56906 121.037 6.7424C119.971 7.91573 119.437 9.50506 119.437 11.5104C119.437 13.4944 119.971 15.0837 121.037 16.2784C122.125 17.4517 123.576 18.0384 125.389 18.0384Z" fill="white"/>
</svg>
