<svg width="154" height="27" viewBox="0 0 154 27" fill="none" xmlns="http://www.w3.org/2000/svg">
<path d="M19.492 9.22905C19.492 10.6931 19.156 12.0371 18.484 13.2611C17.812 14.4611 16.78 15.4331 15.388 16.1771C13.996 16.9211 12.268 17.2931 10.204 17.2931H6.388V26.3651H0.232V1.09305H10.204C12.22 1.09305 13.924 1.44105 15.316 2.13705C16.708 2.83305 17.752 3.79305 18.448 5.01705C19.144 6.24105 19.492 7.64505 19.492 9.22905ZM9.736 12.3971C10.912 12.3971 11.788 12.1211 12.364 11.5691C12.94 11.0171 13.228 10.2371 13.228 9.22905C13.228 8.22105 12.94 7.44105 12.364 6.88905C11.788 6.33705 10.912 6.06105 9.736 6.06105H6.388V12.3971H9.736ZM34.6488 26.6171C32.2728 26.6171 30.0888 26.0651 28.0968 24.9611C26.1288 23.8571 24.5568 22.3211 23.3808 20.3531C22.2288 18.3611 21.6528 16.1291 21.6528 13.6571C21.6528 11.1851 22.2288 8.96505 23.3808 6.99705C24.5568 5.02905 26.1288 3.49305 28.0968 2.38905C30.0888 1.28505 32.2728 0.733051 34.6488 0.733051C37.0248 0.733051 39.1968 1.28505 41.1648 2.38905C43.1568 3.49305 44.7168 5.02905 45.8448 6.99705C46.9968 8.96505 47.5728 11.1851 47.5728 13.6571C47.5728 16.1291 46.9968 18.3611 45.8448 20.3531C44.6928 22.3211 43.1328 23.8571 41.1648 24.9611C39.1968 26.0651 37.0248 26.6171 34.6488 26.6171ZM34.6488 21.0011C36.6648 21.0011 38.2728 20.3291 39.4728 18.9851C40.6968 17.6411 41.3088 15.8651 41.3088 13.6571C41.3088 11.4251 40.6968 9.64905 39.4728 8.32905C38.2728 6.98505 36.6648 6.31305 34.6488 6.31305C32.6088 6.31305 30.9768 6.97305 29.7528 8.29305C28.5528 9.61305 27.9528 11.4011 27.9528 13.6571C27.9528 15.8891 28.5528 17.6771 29.7528 19.0211C30.9768 20.3411 32.6088 21.0011 34.6488 21.0011ZM57.1536 21.6131H65.2176V26.3651H50.9976V1.09305H57.1536V21.6131ZM74.3099 21.6131H82.3739V26.3651H68.1539V1.09305H74.3099V21.6131ZM94.4541 26.6171C92.6061 26.6171 90.9501 26.3171 89.4861 25.7171C88.0221 25.1171 86.8461 24.2291 85.9581 23.0531C85.0941 21.8771 84.6381 20.4611 84.5901 18.8051H91.1421C91.2381 19.7411 91.5621 20.4611 92.1141 20.9651C92.6661 21.4451 93.3861 21.6851 94.2741 21.6851C95.1861 21.6851 95.9061 21.4811 96.4341 21.0731C96.9621 20.6411 97.2261 20.0531 97.2261 19.3091C97.2261 18.6851 97.0101 18.1691 96.5781 17.7611C96.1701 17.3531 95.6541 17.0171 95.0301 16.7531C94.4301 16.4891 93.5661 16.1891 92.4381 15.8531C90.8061 15.3491 89.4741 14.8451 88.4421 14.3411C87.4101 13.8371 86.5221 13.0931 85.7781 12.1091C85.0341 11.1251 84.6621 9.84105 84.6621 8.25705C84.6621 5.90505 85.5141 4.06905 87.2181 2.74905C88.9221 1.40505 91.1421 0.733051 93.8781 0.733051C96.6621 0.733051 98.9061 1.40505 100.61 2.74905C102.314 4.06905 103.226 5.91705 103.346 8.29305H96.6861C96.6381 7.47705 96.3381 6.84105 95.7861 6.38505C95.2341 5.90505 94.5261 5.66505 93.6621 5.66505C92.9181 5.66505 92.3181 5.86905 91.8621 6.27705C91.4061 6.66105 91.1781 7.22505 91.1781 7.96905C91.1781 8.78505 91.5621 9.42105 92.3301 9.87705C93.0981 10.3331 94.2981 10.8251 95.9301 11.3531C97.5621 11.9051 98.8821 12.4331 99.8901 12.9371C100.922 13.4411 101.81 14.1731 102.554 15.1331C103.298 16.0931 103.67 17.3291 103.67 18.8411C103.67 20.2811 103.298 21.5891 102.554 22.7651C101.834 23.9411 100.778 24.8771 99.3861 25.5731C97.9941 26.2691 96.3501 26.6171 94.4541 26.6171ZM110.339 26.6531C109.259 26.6531 108.371 26.3411 107.675 25.7171C107.003 25.0691 106.667 24.2771 106.667 23.3411C106.667 22.3811 107.003 21.5771 107.675 20.9291C108.371 20.2811 109.259 19.9571 110.339 19.9571C111.395 19.9571 112.259 20.2811 112.931 20.9291C113.627 21.5771 113.975 22.3811 113.975 23.3411C113.975 24.2771 113.627 25.0691 112.931 25.7171C112.259 26.3411 111.395 26.6531 110.339 26.6531ZM123.775 1.09305V26.3651H117.619V1.09305H123.775ZM140.188 26.6171C137.812 26.6171 135.628 26.0651 133.636 24.9611C131.668 23.8571 130.096 22.3211 128.92 20.3531C127.768 18.3611 127.192 16.1291 127.192 13.6571C127.192 11.1851 127.768 8.96505 128.92 6.99705C130.096 5.02905 131.668 3.49305 133.636 2.38905C135.628 1.28505 137.812 0.733051 140.188 0.733051C142.564 0.733051 144.736 1.28505 146.704 2.38905C148.696 3.49305 150.256 5.02905 151.384 6.99705C152.536 8.96505 153.112 11.1851 153.112 13.6571C153.112 16.1291 152.536 18.3611 151.384 20.3531C150.232 22.3211 148.672 23.8571 146.704 24.9611C144.736 26.0651 142.564 26.6171 140.188 26.6171ZM140.188 21.0011C142.204 21.0011 143.812 20.3291 145.012 18.9851C146.236 17.6411 146.848 15.8651 146.848 13.6571C146.848 11.4251 146.236 9.64905 145.012 8.32905C143.812 6.98505 142.204 6.31305 140.188 6.31305C138.148 6.31305 136.516 6.97305 135.292 8.29305C134.092 9.61305 133.492 11.4011 133.492 13.6571C133.492 15.8891 134.092 17.6771 135.292 19.0211C136.516 20.3411 138.148 21.0011 140.188 21.0011Z" fill="black"/>
</svg>
