<svg width="50" height="50" viewBox="0 0 50 50" fill="none" xmlns="http://www.w3.org/2000/svg">
<rect width="50" height="50" rx="5" fill="#DFC298"/>
<path d="M14.448 38.248C13.9787 38.248 13.52 38.216 13.072 38.152C11.728 37.9813 10.736 37.5867 10.096 36.968C9.47733 36.3493 9.168 35.6773 9.168 34.952C9.168 34.1627 9.52 33.448 10.224 32.808C10.9493 32.168 11.9627 31.848 13.264 31.848C13.6693 31.848 14.096 31.8907 14.544 31.976C15.0133 32.04 15.504 32.1573 16.016 32.328C16.272 32.4133 16.4 32.5307 16.4 32.68C16.4 32.7653 16.336 32.808 16.208 32.808C16.08 32.808 15.9733 32.7867 15.888 32.744C15.5467 32.616 15.216 32.5307 14.896 32.488C14.5973 32.424 14.3093 32.392 14.032 32.392C13.1147 32.392 12.4107 32.6587 11.92 33.192C11.4507 33.704 11.216 34.2693 11.216 34.888C11.216 35.4853 11.4613 36.0293 11.952 36.52C12.4427 37.0107 13.2213 37.256 14.288 37.256C15.632 37.256 16.8693 36.9467 18 36.328C19.152 35.7093 20.24 34.8987 21.264 33.896C22.352 32.8293 23.344 31.5493 24.24 30.056C25.136 28.5413 26.0213 26.9307 26.896 25.224C27.792 23.496 28.7627 21.7573 29.808 20.008C30.8533 18.2587 32.0587 16.616 33.424 15.08C33.7013 14.7813 33.9787 14.472 34.256 14.152C34.5547 13.8107 34.8427 13.5227 35.12 13.288C34.3947 13.1813 33.648 13.1067 32.88 13.064C32.112 13 31.3547 12.968 30.608 12.968C29.4987 12.968 28.4427 13.0213 27.44 13.128C26.4587 13.2133 25.4773 13.3413 24.496 13.512C23.4933 13.704 22.3733 14.0027 21.136 14.408C19.8987 14.8133 18.6933 15.3467 17.52 16.008C16.368 16.648 15.376 17.4267 14.544 18.344C13.7333 19.2613 13.232 20.3173 13.04 21.512C13.0187 21.6187 12.9973 21.736 12.976 21.864C12.976 21.9707 12.976 22.0773 12.976 22.184C12.976 23.1653 13.3067 23.976 13.968 24.616C14.6507 25.256 15.44 25.576 16.336 25.576C16.9973 25.576 17.6373 25.4053 18.256 25.064C18.8747 24.7013 19.4293 24.232 19.92 23.656C20.4107 23.0587 20.7733 22.408 21.008 21.704C21.0293 21.4907 21.1147 21.384 21.264 21.384C21.392 21.384 21.456 21.5013 21.456 21.736C21.4347 22.6747 21.1573 23.4853 20.624 24.168C20.112 24.8507 19.4613 25.3733 18.672 25.736C17.8827 26.0773 17.0827 26.248 16.272 26.248C15.44 26.248 14.6507 26.0773 13.904 25.736C13.1573 25.3733 12.5493 24.8507 12.08 24.168C11.6107 23.464 11.376 22.6 11.376 21.576C11.376 20.3813 11.664 19.3253 12.24 18.408C12.8373 17.4907 13.6267 16.6907 14.608 16.008C15.5893 15.304 16.656 14.7173 17.808 14.248C18.96 13.7573 20.112 13.3733 21.264 13.096C22.416 12.7973 23.4613 12.5733 24.4 12.424C25.36 12.2747 26.352 12.1573 27.376 12.072C28.4213 11.9867 29.4773 11.944 30.544 11.944C31.4613 11.944 32.3787 11.9867 33.296 12.072C34.2133 12.1573 35.1093 12.2853 35.984 12.456C36.3467 12.1787 36.72 11.9333 37.104 11.72C37.488 11.5067 37.9147 11.3147 38.384 11.144C38.6827 11.016 38.9067 10.952 39.056 10.952C39.184 10.952 39.248 10.9947 39.248 11.08C39.248 11.2293 39.0773 11.4107 38.736 11.624C38.5653 11.7093 38.352 11.8587 38.096 12.072C37.84 12.2853 37.5627 12.5307 37.264 12.808C38.6507 13.1493 39.8987 13.6613 41.008 14.344C42.224 15.0693 43.088 15.8373 43.6 16.648C44.1333 17.4587 44.4 18.2907 44.4 19.144C44.4 20.1253 44.1013 21.1067 43.504 22.088C42.9067 23.048 42.128 23.944 41.168 24.776C40.208 25.608 39.152 26.3333 38 26.952C36.848 27.5493 35.7067 27.9867 34.576 28.264C33.488 28.5413 32.3893 28.744 31.28 28.872C30.1707 29 29.1787 29.064 28.304 29.064C28.1547 29.064 27.9947 29.064 27.824 29.064C27.6747 29.064 27.5253 29.0533 27.376 29.032C26.6507 30.056 25.904 31.0587 25.136 32.04C24.368 33 23.504 33.9387 22.544 34.856C21.3707 35.9653 20.0907 36.808 18.704 37.384C17.3173 37.96 15.8987 38.248 14.448 38.248ZM27.824 28.328C28.6347 28.3493 29.5413 28.2853 30.544 28.136C31.5467 27.9867 32.5493 27.7627 33.552 27.464C35.216 26.952 36.7093 26.216 38.032 25.256C39.376 24.296 40.432 23.2293 41.2 22.056C41.9893 20.8827 42.384 19.7307 42.384 18.6C42.384 17.9173 42.2133 17.2667 41.872 16.648C41.552 16.0293 41.0187 15.4747 40.272 14.984C39.7813 14.664 39.2267 14.3867 38.608 14.152C37.9893 13.9173 37.3387 13.7253 36.656 13.576C35.568 15.112 34.544 16.712 33.584 18.376C32.6453 20.04 31.7067 21.7147 30.768 23.4C29.8507 25.0853 28.8693 26.728 27.824 28.328Z" fill="#6B6C70"/>
</svg>
