<svg width="66" height="65" viewBox="0 0 66 65" fill="none" xmlns="http://www.w3.org/2000/svg">
<path d="M5.472 17.18C4.5 17.18 3.672 17.024 2.988 16.712C2.316 16.4 1.8 15.998 1.44 15.506C1.08 15.014 0.888 14.492 0.864 13.94C0.864 13.844 0.9 13.76 0.972 13.688C1.044 13.616 1.134 13.58 1.242 13.58H1.602C1.722 13.58 1.812 13.616 1.872 13.688C1.944 13.76 1.986 13.844 1.998 13.94C2.046 14.276 2.196 14.612 2.448 14.948C2.7 15.272 3.072 15.548 3.564 15.776C4.056 15.992 4.692 16.1 5.472 16.1C6.648 16.1 7.506 15.89 8.046 15.47C8.586 15.038 8.856 14.462 8.856 13.742C8.856 13.262 8.712 12.878 8.424 12.59C8.148 12.29 7.722 12.026 7.146 11.798C6.57 11.558 5.832 11.294 4.932 11.006C4.08 10.73 3.378 10.448 2.826 10.16C2.274 9.86 1.866 9.5 1.602 9.08C1.35 8.66 1.224 8.12 1.224 7.46C1.224 6.848 1.386 6.302 1.71 5.822C2.034 5.33 2.502 4.94 3.114 4.652C3.738 4.364 4.494 4.22 5.382 4.22C6.09 4.22 6.708 4.316 7.236 4.508C7.764 4.7 8.202 4.958 8.55 5.282C8.898 5.594 9.162 5.936 9.342 6.308C9.522 6.668 9.618 7.022 9.63 7.37C9.63 7.454 9.6 7.538 9.54 7.622C9.48 7.694 9.384 7.73 9.252 7.73H8.892C8.832 7.73 8.754 7.706 8.658 7.658C8.574 7.61 8.52 7.514 8.496 7.37C8.424 6.77 8.106 6.278 7.542 5.894C6.99 5.498 6.27 5.3 5.382 5.3C4.494 5.3 3.768 5.474 3.204 5.822C2.64 6.17 2.358 6.716 2.358 7.46C2.358 7.94 2.484 8.336 2.736 8.648C2.988 8.948 3.384 9.218 3.924 9.458C4.464 9.686 5.16 9.938 6.012 10.214C6.912 10.502 7.656 10.79 8.244 11.078C8.832 11.366 9.27 11.72 9.558 12.14C9.846 12.548 9.99 13.082 9.99 13.742C9.99 14.474 9.804 15.098 9.432 15.614C9.072 16.118 8.556 16.508 7.884 16.784C7.212 17.048 6.408 17.18 5.472 17.18ZM16.8564 17.18C15.7644 17.18 14.8704 16.97 14.1744 16.55C13.4904 16.118 12.9804 15.536 12.6444 14.804C12.3084 14.072 12.1224 13.238 12.0864 12.302C12.0744 11.81 12.0684 11.282 12.0684 10.718C12.0684 10.154 12.0744 9.614 12.0864 9.098C12.1224 8.162 12.3084 7.328 12.6444 6.596C12.9804 5.852 13.4904 5.27 14.1744 4.85C14.8704 4.43 15.7644 4.22 16.8564 4.22C17.7084 4.22 18.4344 4.34 19.0344 4.58C19.6344 4.82 20.1204 5.138 20.4924 5.534C20.8764 5.918 21.1584 6.338 21.3384 6.794C21.5304 7.238 21.6384 7.676 21.6624 8.108C21.6744 8.216 21.6384 8.306 21.5544 8.378C21.4824 8.438 21.3924 8.468 21.2844 8.468H20.9244C20.8284 8.468 20.7444 8.444 20.6724 8.396C20.6004 8.336 20.5524 8.234 20.5284 8.09C20.3004 7.022 19.8684 6.29 19.2324 5.894C18.6084 5.498 17.8164 5.3 16.8564 5.3C15.7644 5.3 14.8944 5.612 14.2464 6.236C13.6104 6.848 13.2684 7.832 13.2204 9.188C13.1844 10.172 13.1844 11.18 13.2204 12.212C13.2684 13.568 13.6104 14.558 14.2464 15.182C14.8944 15.794 15.7644 16.1 16.8564 16.1C17.8164 16.1 18.6084 15.902 19.2324 15.506C19.8684 15.11 20.3004 14.378 20.5284 13.31C20.5524 13.166 20.6004 13.07 20.6724 13.022C20.7444 12.962 20.8284 12.932 20.9244 12.932H21.2844C21.3924 12.932 21.4824 12.968 21.5544 13.04C21.6384 13.1 21.6744 13.184 21.6624 13.292C21.6384 13.724 21.5304 14.168 21.3384 14.624C21.1584 15.068 20.8764 15.488 20.4924 15.884C20.1204 16.268 19.6344 16.58 19.0344 16.82C18.4344 17.06 17.7084 17.18 16.8564 17.18ZM24.711 17C24.591 17 24.495 16.964 24.423 16.892C24.351 16.82 24.315 16.724 24.315 16.604V4.814C24.315 4.682 24.351 4.58 24.423 4.508C24.495 4.436 24.591 4.4 24.711 4.4H28.905C30.165 4.4 31.167 4.7 31.911 5.3C32.667 5.9 33.045 6.812 33.045 8.036C33.045 8.996 32.805 9.764 32.325 10.34C31.845 10.916 31.179 11.306 30.327 11.51L33.225 16.442C33.261 16.514 33.279 16.58 33.279 16.64C33.279 16.736 33.243 16.82 33.171 16.892C33.099 16.964 33.015 17 32.919 17H32.703C32.511 17 32.367 16.952 32.271 16.856C32.175 16.748 32.091 16.634 32.019 16.514L29.157 11.672H25.449V16.604C25.449 16.724 25.413 16.82 25.341 16.892C25.269 16.964 25.167 17 25.035 17H24.711ZM25.449 10.592H28.815C29.859 10.592 30.633 10.382 31.137 9.962C31.653 9.53 31.911 8.888 31.911 8.036C31.911 7.184 31.653 6.548 31.137 6.128C30.633 5.696 29.859 5.48 28.815 5.48H25.449V10.592ZM40.0947 17.18C39.0987 17.18 38.2527 17.006 37.5567 16.658C36.8607 16.298 36.3267 15.752 35.9547 15.02C35.5827 14.276 35.3787 13.34 35.3427 12.212C35.3307 11.672 35.3247 11.168 35.3247 10.7C35.3247 10.232 35.3307 9.728 35.3427 9.188C35.3787 8.072 35.5947 7.148 35.9907 6.416C36.3867 5.672 36.9327 5.12 37.6287 4.76C38.3367 4.4 39.1587 4.22 40.0947 4.22C41.0307 4.22 41.8467 4.4 42.5427 4.76C43.2507 5.12 43.8027 5.672 44.1987 6.416C44.6067 7.148 44.8227 8.072 44.8467 9.188C44.8707 9.728 44.8827 10.232 44.8827 10.7C44.8827 11.168 44.8707 11.672 44.8467 12.212C44.8227 13.34 44.6187 14.276 44.2347 15.02C43.8627 15.752 43.3287 16.298 42.6327 16.658C41.9367 17.006 41.0907 17.18 40.0947 17.18ZM40.0947 16.1C41.1267 16.1 41.9727 15.788 42.6327 15.164C43.3047 14.54 43.6647 13.526 43.7127 12.122C43.7367 11.582 43.7487 11.108 43.7487 10.7C43.7487 10.292 43.7367 9.818 43.7127 9.278C43.6887 8.342 43.5147 7.58 43.1907 6.992C42.8787 6.404 42.4527 5.978 41.9127 5.714C41.3847 5.438 40.7787 5.3 40.0947 5.3C39.4227 5.3 38.8167 5.438 38.2767 5.714C37.7487 5.978 37.3227 6.404 36.9987 6.992C36.6867 7.58 36.5127 8.342 36.4767 9.278C36.4647 9.818 36.4587 10.292 36.4587 10.7C36.4587 11.108 36.4647 11.582 36.4767 12.122C36.5247 13.526 36.8847 14.54 37.5567 15.164C38.2287 15.788 39.0747 16.1 40.0947 16.1ZM48.1427 17C48.0227 17 47.9267 16.964 47.8547 16.892C47.7827 16.82 47.7467 16.724 47.7467 16.604V4.796C47.7467 4.676 47.7827 4.58 47.8547 4.508C47.9267 4.436 48.0227 4.4 48.1427 4.4H48.4847C48.6047 4.4 48.7007 4.436 48.7727 4.508C48.8447 4.58 48.8807 4.676 48.8807 4.796V15.92H55.0907C55.2227 15.92 55.3247 15.956 55.3967 16.028C55.4687 16.1 55.5047 16.202 55.5047 16.334V16.604C55.5047 16.724 55.4687 16.82 55.3967 16.892C55.3247 16.964 55.2227 17 55.0907 17H48.1427ZM58.004 17C57.884 17 57.788 16.964 57.716 16.892C57.644 16.82 57.608 16.724 57.608 16.604V4.796C57.608 4.676 57.644 4.58 57.716 4.508C57.788 4.436 57.884 4.4 58.004 4.4H58.346C58.466 4.4 58.562 4.436 58.634 4.508C58.706 4.58 58.742 4.676 58.742 4.796V15.92H64.952C65.084 15.92 65.186 15.956 65.258 16.028C65.33 16.1 65.366 16.202 65.366 16.334V16.604C65.366 16.724 65.33 16.82 65.258 16.892C65.186 16.964 65.084 17 64.952 17H58.004Z" fill="#333333"/>
<g clip-path="url(#clip0_3_422)">
<path d="M33.5127 64.7885L40.7853 57.5159C41.0904 57.2547 41.1259 56.7956 40.8646 56.4905C40.6034 56.1855 40.1443 56.1499 39.8392 56.4112C39.8108 56.4356 39.7842 56.4621 39.7599 56.4905L33.7236 62.5195L33.7236 33.7272C33.7236 33.3256 33.398 33 32.9963 33C32.5947 33 32.2691 33.3256 32.2691 33.7272L32.2691 62.5195L26.2401 56.4905C25.9789 56.1855 25.5198 56.1499 25.2147 56.4112C24.9097 56.6725 24.8741 57.1316 25.1354 57.4366C25.1598 57.4651 25.1863 57.4916 25.2147 57.5159L32.4873 64.7886C32.7709 65.0705 33.229 65.0705 33.5127 64.7885Z" fill="#333333"/>
</g>
<defs>
<clipPath id="clip0_3_422">
<rect width="32" height="32" fill="white" transform="translate(49 33) rotate(90)"/>
</clipPath>
</defs>
</svg>
