<svg width="186" height="27" viewBox="0 0 186 27" fill="none" xmlns="http://www.w3.org/2000/svg">
<path d="M13.5 0L16.5309 9.32827H26.3393L18.4042 15.0935L21.4351 24.4217L13.5 18.6565L5.5649 24.4217L8.59584 15.0935L0.660737 9.32827H10.4691L13.5 0Z" fill="#EFA81C"/>
<path d="M52.5 0L55.5309 9.32827H65.3393L57.4042 15.0935L60.4351 24.4217L52.5 18.6565L44.5649 24.4217L47.5958 15.0935L39.6607 9.32827H49.4691L52.5 0Z" fill="#EFA81C"/>
<path d="M92.5 0L95.5309 9.32827H105.339L97.4042 15.0935L100.435 24.4217L92.5 18.6565L84.5649 24.4217L87.5958 15.0935L79.6607 9.32827H89.4691L92.5 0Z" fill="#EFA81C"/>
<path d="M132.5 0L135.531 9.32827H145.339L137.404 15.0935L140.435 24.4217L132.5 18.6565L124.565 24.4217L127.596 15.0935L119.661 9.32827H129.469L132.5 0Z" fill="#EFA81C"/>
<path d="M172.5 0L175.531 9.32827H185.339L177.404 15.0935L180.435 24.4217L172.5 18.6565L164.565 24.4217L167.596 15.0935L159.661 9.32827H169.469L172.5 0Z" fill="#EFA81C"/>
</svg>
